<svg xmlns="http://www.w3.org/2000/svg" xmlns:xlink="http://www.w3.org/1999/xlink" version="1.1" x="0px" y="0px" viewBox="0 0 100 125" enable-background="new 0 0 100 100" xml:space="preserve"><path d="M24.989,38.115h50.021c1.036,0,1.875-0.84,1.875-1.875c0-1.035-0.839-1.875-1.875-1.875H24.989  c-1.036,0-1.875,0.84-1.875,1.875C23.114,37.275,23.953,38.115,24.989,38.115z"/><path d="M24.989,51.875h50.021c1.036,0,1.875-0.84,1.875-1.875s-0.839-1.875-1.875-1.875H24.989c-1.036,0-1.875,0.84-1.875,1.875  S23.953,51.875,24.989,51.875z"/><path d="M24.989,65.635h50.021c1.036,0,1.875-0.84,1.875-1.875c0-1.035-0.839-1.875-1.875-1.875H24.989  c-1.036,0-1.875,0.84-1.875,1.875C23.114,64.796,23.953,65.635,24.989,65.635z"/></svg>