<svg xmlns:dc="http://purl.org/dc/elements/1.1/" xmlns:cc="http://creativecommons.org/ns#" xmlns:rdf="http://www.w3.org/1999/02/22-rdf-syntax-ns#" xmlns:svg="http://www.w3.org/2000/svg" xmlns="http://www.w3.org/2000/svg" xmlns:sodipodi="http://sodipodi.sourceforge.net/DTD/sodipodi-0.dtd" xmlns:inkscape="http://www.inkscape.org/namespaces/inkscape" viewBox="0 0 32 40.00000125" version="1.1" x="0px" y="0px"><g transform="translate(0,-1020.3622)"><g transform="translate(-2.7640848e-5,-3.9608678)"><g transform="translate(-193.99997,107.96089)"><g transform="translate(244.50034,-99.51437)"><g transform="matrix(0.91141401,0,0,0.91115977,-166.65538,-67.310652)"><g transform="translate(130,170)"><path style="color:#000000;font-style:normal;font-variant:normal;font-weight:normal;font-stretch:normal;font-size:medium;line-height:normal;font-family:sans-serif;text-indent:0;text-align:start;text-decoration:none;text-decoration-line:none;text-decoration-style:solid;text-decoration-color:#000000;letter-spacing:normal;word-spacing:normal;text-transform:none;direction:ltr;block-progression:tb;writing-mode:lr-tb;baseline-shift:baseline;text-anchor:start;white-space:normal;clip-rule:nonzero;display:inline;overflow:visible;visibility:visible;opacity:1;isolation:auto;mix-blend-mode:normal;color-interpolation:sRGB;color-interpolation-filters:linearRGB;solid-color:#000000;solid-opacity:1;fill:#000000;fill-opacity:1;fill-rule:nonzero;stroke:none;stroke-width:1.09734952;stroke-linecap:round;stroke-linejoin:round;stroke-miterlimit:4;stroke-dasharray:none;stroke-dashoffset:0;stroke-opacity:1;color-rendering:auto;image-rendering:auto;shape-rendering:auto;text-rendering:auto;enable-background:accumulate" d="M 16.015625 1.7480469 L 16.015625 1.7539062 A 0.50011987 0.49998036 0 0 0 15.650391 1.90625 L 12.873047 4.8066406 L 11.283203 3.6523438 A 0.50011982 0.49998031 0 0 0 11.001953 3.5566406 A 0.50011982 0.49998031 0 0 0 10.787109 3.5976562 C 7.2911751 5.1162862 3.7967291 6.6337138 0.30078125 8.1523438 A 0.50011982 0.49998031 0 0 0 0.48046875 9.1113281 L 0.3359375 9.1113281 L 4.7050781 12.287109 L 0.20507812 15.558594 A 0.50011982 0.49998031 0 0 0 0.49414062 16.462891 L 0.39648438 16.462891 L 5 18.462891 L 5 25.933594 A 0.50011982 0.49998031 0 0 0 5.0019531 25.994141 A 0.50011982 0.49998031 0 0 0 5.3105469 26.482422 L 15.6875 30.912109 A 0.50011982 0.49998031 0 0 0 16.035156 31.005859 A 0.50011982 0.49998031 0 0 0 16.285156 30.921875 L 26.839844 26.412109 A 0.50011982 0.49998031 0 0 0 27.152344 25.955078 A 0.50020953 0.50006999 0 0 0 27.152344 25.941406 A 0.50011982 0.49998031 0 0 0 27.152344 25.933594 L 27.152344 18.353516 L 31.605469 16.419922 L 31.5 16.419922 A 0.50011982 0.49998031 0 0 0 31.794922 15.513672 L 27.117188 12.109375 A 0.50045036 0.50031075 0 0 0 27.113281 12.099609 L 31.201172 9.1269531 L 31.039062 9.1269531 A 0.50011982 0.49998031 0 0 0 31.238281 8.1699219 C 27.742334 6.6512919 24.245934 5.1338644 20.75 3.6152344 A 0.50011982 0.49998031 0 0 0 20.554688 3.5742188 A 0.50011982 0.49998031 0 0 0 20.255859 3.6679688 L 18.966797 4.6074219 L 16.373047 1.9023438 A 0.50011987 0.49998036 0 0 0 16.015625 1.7480469 z M 16.011719 2.96875 L 16.011719 2.9765625 L 18.474609 5.546875 A 0.50011982 0.49998031 0 0 0 18.607422 5.6835938 L 19.333984 6.4433594 L 18.248047 6.4433594 A 0.50011987 0.49998036 0 0 0 18.236328 6.4433594 L 17.480469 6.4628906 A 0.50011987 0.49998036 0 0 0 16.994141 6.9628906 L 16.994141 13.996094 L 15 13.996094 L 15 8.4023438 A 0.50011982 0.49998031 0 0 0 15 8.3027344 L 15 6.9628906 A 0.50011987 0.49998036 0 0 0 14.507812 6.4628906 L 13.759766 6.4492188 A 0.50011987 0.49998036 0 0 0 13.748047 6.4492188 L 12.675781 6.4492188 L 16.011719 2.96875 z M 10.923828 4.6269531 L 12.173828 5.5351562 L 11.138672 6.6171875 A 0.50011987 0.49998036 0 0 0 11.501953 7.4628906 L 13.746094 7.453125 L 14 7.453125 L 14 8.03125 L 5.53125 11.650391 L 1.5019531 8.7226562 C 4.6432016 7.3581945 7.7825688 5.991506 10.923828 4.6269531 z M 20.613281 4.6445312 C 23.753875 6.0088108 26.894573 7.3740928 30.035156 8.7382812 L 26.193359 11.533203 L 17.996094 8.0292969 L 17.996094 7.4492188 L 18.257812 7.4394531 L 20.501953 7.4316406 A 0.50011987 0.49998036 0 0 0 20.861328 6.5839844 L 19.664062 5.3339844 L 20.613281 4.6445312 z M 17.996094 9.1171875 L 25.382812 12.277344 L 16 16.287109 L 12.980469 14.996094 L 9.1035156 13.339844 L 6.6152344 12.275391 L 14 9.1191406 L 14 14.496094 A 0.50011987 0.49998036 0 0 0 14.5 14.996094 L 17.496094 14.996094 A 0.50011987 0.49998036 0 0 0 17.996094 14.496094 L 17.996094 9.1171875 z M 26.482422 12.892578 L 30.498047 15.8125 L 21.076172 19.904297 L 17.003906 16.945312 L 26.482422 12.892578 z M 5.5488281 12.90625 L 8.7109375 14.257812 L 12.587891 15.917969 L 15.029297 16.960938 L 10.925781 19.943359 L 5.890625 17.755859 A 0.50011982 0.49998031 0 0 0 5.4921875 17.566406 A 0.50011982 0.49998031 0 0 0 5.4589844 17.568359 L 1.5019531 15.849609 L 5.5488281 12.90625 z M 16.5 17.814453 L 20.716797 20.880859 L 20.71875 20.880859 A 0.50011982 0.49998031 0 0 0 20.802734 20.929688 A 0.50011982 0.49998031 0 0 0 20.804688 20.929688 A 0.50011982 0.49998031 0 0 0 20.816406 20.939453 A 0.50011982 0.49998031 0 0 0 20.898438 20.966797 A 0.50011982 0.49998031 0 0 0 20.947266 20.974609 A 0.50011982 0.49998031 0 0 0 20.949219 20.974609 A 0.50011982 0.49998031 0 0 0 20.996094 20.974609 A 0.50011982 0.49998031 0 0 0 21.013672 20.974609 A 0.50011982 0.49998031 0 0 0 21.113281 20.964844 A 0.50011982 0.49998031 0 0 0 21.160156 20.951172 A 0.50011982 0.49998031 0 0 0 21.207031 20.933594 A 0.50011982 0.49998031 0 0 0 21.212891 20.933594 L 26.152344 18.789062 L 26.152344 25.617188 L 16.5 29.746094 L 16.5 17.814453 z M 15.5 17.853516 L 15.5 29.746094 L 6 25.689453 L 6 18.898438 L 10.787109 20.978516 A 0.50011982 0.49998031 0 0 0 10.833984 20.994141 A 0.50011982 0.49998031 0 0 0 10.869141 21.005859 A 0.50011982 0.49998031 0 0 0 10.882812 21.005859 A 0.50011982 0.49998031 0 0 0 10.884766 21.005859 A 0.50011982 0.49998031 0 0 0 10.982422 21.015625 A 0.50011982 0.49998031 0 0 0 10.984375 21.015625 A 0.50011982 0.49998031 0 0 0 10.986328 21.015625 A 0.50011982 0.49998031 0 0 0 11.085938 21.005859 A 0.50011982 0.49998031 0 0 0 11.183594 20.976562 A 0.50011982 0.49998031 0 0 0 11.269531 20.929688 A 0.50011982 0.49998031 0 0 0 11.283203 20.919922 L 15.5 17.853516 z M 20.470703 23.396484 A 0.50011982 0.49998031 0 0 0 20.291016 23.439453 L 17.632812 24.574219 A 0.50040845 0.50026886 0 1 0 18.025391 25.494141 L 20.683594 24.357422 A 0.50011982 0.49998031 0 0 0 20.470703 23.396484 z M 23.126953 24.078125 A 0.50011982 0.49998031 0 0 0 22.947266 24.121094 L 20.291016 25.255859 L 17.632812 26.394531 A 0.50040845 0.50026886 0 1 0 18.025391 27.314453 L 20.683594 26.175781 L 23.341797 25.039062 A 0.50011982 0.49998031 0 0 0 23.126953 24.078125 z " transform="matrix(1.0971962,0,0,1.0975024,-2.5551326,1018.8005)"/></g></g></g></g></g></g></svg>