<svg xmlns="http://www.w3.org/2000/svg" viewBox="0 0 64 80" x="0px" y="0px"><title>design-Sketching-sketch-Graphic design</title><g><path d="M16,39a1,1,0,0,0-1,1v5a1,1,0,0,0,2,0V40A1,1,0,0,0,16,39Z"/><path d="M61,13H58V3a1,1,0,0,0-1-1H51a1,1,0,0,0-1,1V13H3a1,1,0,0,0-1,1V50a1,1,0,0,0,1,1H8v3a8,8,0,0,0,16,0V51H61a1,1,0,0,0,1-1V14A1,1,0,0,0,61,13ZM56,28H52V8h4Zm-.517,2L54,33.461,52.517,30ZM52,4h4V6H52ZM7.586,15,4,18.586V15ZM9,16.414V20H5.414ZM22,54a6,6,0,0,1-12,0V42a6,6,0,0,1,12,0Zm38-5H24V42A8,8,0,0,0,8,42v7H4V22h6a1,1,0,0,0,1-1V15H50V29c0,.014.008.026.008.041a1,1,0,0,0,.068.336l0,.015v0l3,7a1,1,0,0,0,1.838,0l3-7v0l0-.015a1,1,0,0,0,.068-.336c0-.015.008-.027.008-.041V15h2Z"/><path d="M57,45H55a1,1,0,0,0,0,2h2a1,1,0,0,0,0-2Z"/><path d="M51,45H49a1,1,0,0,0,0,2h2a1,1,0,0,0,0-2Z"/><path d="M42.774,20.367a1,1,0,0,0-1.407-.141L31.031,28.683l-9.362-8.426a1,1,0,0,0-1.238-.079l-13,9a1,1,0,1,0,1.138,1.644l12.35-8.55,9.412,8.471a1,1,0,0,0,1.3.031l11-9A1,1,0,0,0,42.774,20.367Z"/><path d="M39.848,33.47a1.039,1.039,0,0,0-1.7,0l-5,8A1,1,0,0,0,34,43H44a1,1,0,0,0,.848-1.53ZM35.8,41,39,35.887,42.2,41Z"/></g></svg>