<svg xmlns="http://www.w3.org/2000/svg" data-name="Layer 1" viewBox="0 0 100 125" x="0px" y="0px"><title>35</title><g data-name="Group"><path data-name="Compound Path" d="M89.7,14a10,10,0,0,0-10-10H20.3a10,10,0,0,0-10,10V63.6a10,10,0,0,0,10,10H38.7V85a11,11,0,0,0,11,11h.6a11,11,0,0,0,11-11V73.6H79.7a10,10,0,0,0,10-10ZM20.3,8H79.7a6,6,0,0,1,6,6v8H14.3V14A6,6,0,0,1,20.3,8Zm37,52.8v20H52v-20Zm-14.4-4L50,44.4l7.1,12.4Zm-.2,4H48v20H42.7ZM50.3,92h-.6a7,7,0,0,1-7-7v-.2H57.3V85A7,7,0,0,1,50.3,92ZM79.7,69.6H61.3V56.6a2,2,0,0,0-.3-1L51.7,39.4a2,2,0,0,0-3.5,0L39,55.6a2,2,0,0,0-.3,1V69.6H20.3a6,6,0,0,1-6-6V26H85.7V63.6A6,6,0,0,1,79.7,69.6Z"/><rect data-name="Path" x="20.3" y="13" width="6.3" height="4"/></g></svg>